<svg width="256" height="80" viewBox="0 0 256 80" fill="none" xmlns="http://www.w3.org/2000/svg">
<g clip-path="url(#clip0_4619_5011)">
<path d="M92.0439 36.3179C93.1088 35.5895 94.3808 35.2252 95.6698 35.2794C96.91 35.2607 98.1236 35.6397 99.1327 36.3608C100.163 37.1168 100.926 38.1807 101.313 39.3988L105.775 38.1115C105.262 36.012 103.998 34.1728 102.222 32.9408C100.311 31.6472 98.0413 30.9868 95.7342 31.0527C93.6166 30.9918 91.5254 31.5351 89.7052 32.6189C88.0322 33.6616 86.6922 35.1609 85.8433 36.9401C84.9097 38.9224 84.4401 41.0914 84.4701 43.2823C84.4445 45.4511 84.9018 47.5985 85.8089 49.5687C86.6367 51.3549 87.9591 52.8664 89.6194 53.9242C91.4399 55.0281 93.5418 55.5797 95.6698 55.5119C97.9238 55.58 100.143 54.9456 102.021 53.6967C103.812 52.4251 105.132 50.5965 105.775 48.4959L101.227 47.4232C100.834 48.5554 100.122 49.5495 99.1756 50.2853C98.1471 50.9915 96.9161 51.3425 95.6698 51.2851C93.55 51.2851 91.9509 50.5485 90.8724 49.0752C89.7939 47.602 89.2475 45.671 89.2332 43.2823C89.2214 41.8779 89.4612 40.4827 89.9412 39.1628C90.3476 38.0287 91.0789 37.0392 92.0439 36.3179Z" fill="white"/>
<path d="M120.472 31.5762C119.716 31.6261 118.97 31.7702 118.25 32.0053C117.547 32.232 116.885 32.5695 116.289 33.0051C115.673 33.4174 115.135 33.9362 114.701 34.537C114.497 34.811 114.311 35.0977 114.143 35.3952V31.6963H110.152V54.8681H114.679V43.1749C114.674 42.2976 114.768 41.4224 114.958 40.566C115.133 39.7732 115.44 39.0158 115.868 38.326C116.339 37.6006 116.968 36.9906 117.707 36.5411C118.446 36.0917 119.277 35.8145 120.138 35.7299C120.982 35.6378 121.836 35.6959 122.661 35.9016V31.6963C121.939 31.5674 121.204 31.527 120.472 31.5762Z" fill="white"/>
<path d="M131.648 31.6921H127.164V54.864H131.648V31.6921Z" fill="white"/>
<path d="M131.648 23.5391H127.164V27.8945H131.648V23.5391Z" fill="white"/>
<path d="M144.372 36.3179C145.439 35.5905 146.712 35.2264 148.002 35.2794C149.242 35.2607 150.456 35.6397 151.465 36.3608C152.495 37.1168 153.258 38.1807 153.645 39.3988L158.103 38.1115C157.593 36.0117 156.33 34.1719 154.554 32.9408C152.642 31.648 150.373 30.9877 148.066 31.0527C145.949 30.9918 143.857 31.5351 142.037 32.6189C140.364 33.6616 139.024 35.1609 138.175 36.9401C137.242 38.9224 136.772 41.0914 136.802 43.2823C136.777 45.4511 137.234 47.5985 138.141 49.5687C138.969 51.3549 140.291 52.8664 141.951 53.9242C143.772 55.0281 145.874 55.5797 148.002 55.5119C150.254 55.5802 152.473 54.9458 154.348 53.6967C156.142 52.4277 157.463 50.5981 158.103 48.4959L153.559 47.4232C153.166 48.5554 152.454 49.5495 151.508 50.2853C150.479 50.9915 149.248 51.3425 148.002 51.2851C145.882 51.2851 144.283 50.5485 143.204 49.0752C142.126 47.602 141.58 45.671 141.565 43.2823C141.553 41.8779 141.793 40.4827 142.273 39.1628C142.68 38.0298 143.409 37.0407 144.372 36.3179Z" fill="white"/>
<path d="M177.546 42.9475C176.066 42.2281 174.51 41.6782 172.907 41.3083C171.091 40.8506 169.719 40.4573 168.792 40.1283C168.095 39.9325 167.453 39.5803 166.913 39.0984C166.591 38.7397 166.419 38.2713 166.432 37.7896C166.43 37.3584 166.546 36.9348 166.769 36.5654C166.991 36.196 167.311 35.8951 167.694 35.6956C168.707 35.1533 169.857 34.9192 171.002 35.0219C172.225 35.0238 173.42 35.3898 174.435 36.0732C174.866 36.3752 175.229 36.7642 175.5 37.215C175.771 37.6659 175.945 38.1686 176.01 38.6908L180.614 37.8755C180.462 36.5508 179.923 35.3003 179.065 34.2795C178.157 33.2218 176.999 32.4077 175.696 31.9109C174.191 31.3325 172.589 31.0485 170.976 31.0741C169.35 31.0391 167.733 31.3309 166.222 31.9323C164.967 32.4287 163.879 33.2691 163.081 34.3568C162.326 35.429 161.935 36.7149 161.965 38.0257C161.941 39.0276 162.198 40.0162 162.707 40.8792C163.332 41.7869 164.192 42.5065 165.196 42.9604C166.707 43.68 168.289 44.238 169.916 44.6253C171.736 45.1088 173.089 45.5164 173.976 45.8483C174.633 46.04 175.23 46.3976 175.709 46.8867C176.008 47.3017 176.159 47.8048 176.138 48.3157C176.154 48.7772 176.054 49.2353 175.846 49.6478C175.638 50.0603 175.33 50.4138 174.95 50.6757C173.97 51.2991 172.818 51.5992 171.659 51.534C170.296 51.5806 168.951 51.2174 167.797 50.4912C166.788 49.8422 166.075 48.8215 165.814 47.6505L161.223 48.3586C161.379 49.411 161.748 50.4203 162.309 51.3243C162.87 52.2284 163.61 53.008 164.484 53.6151C166.255 54.8595 168.543 55.4818 171.35 55.4818C174.285 55.4818 176.585 54.8309 178.25 53.5293C179.915 52.2277 180.741 50.4426 180.73 48.1741C180.763 47.1133 180.508 46.0635 179.992 45.136C179.394 44.1948 178.548 43.4373 177.546 42.9475Z" fill="white"/>
<path d="M191.855 25.2598H187.35V31.6964H182.904V35.3009H187.35V45.7497C187.35 47.007 187.35 48.1355 187.401 49.1268C187.444 50.1523 187.72 51.1545 188.208 52.0576C188.74 53.107 189.617 53.9406 190.693 54.4177C191.878 54.935 193.154 55.2122 194.447 55.233C195.887 55.2713 197.326 55.149 198.738 54.8682V51.0706C197.43 51.2797 196.101 51.3258 194.782 51.2079C194.279 51.1801 193.791 51.0275 193.362 50.7638C192.932 50.5 192.575 50.1336 192.323 49.6975C192.04 49.1622 191.892 48.5653 191.894 47.9596C191.894 47.273 191.864 46.4663 191.864 45.5351V35.3009H198.73V31.6964H191.864L191.855 25.2598Z" fill="white"/>
<path d="M218.628 32.6191C216.793 31.5941 214.727 31.0532 212.625 31.0472C210.523 31.0412 208.454 31.5703 206.613 32.5847C204.911 33.6111 203.535 35.099 202.644 36.8758C201.667 38.86 201.181 41.0498 201.228 43.2609C201.183 45.4602 201.658 47.639 202.614 49.6203C203.487 51.4068 204.852 52.9072 206.549 53.9457C208.386 54.9662 210.454 55.5016 212.556 55.5016C214.658 55.5016 216.726 54.9662 218.564 53.9457C220.266 52.9132 221.64 51.4174 222.524 49.6332C223.446 47.6413 223.923 45.4728 223.923 43.2781C223.923 41.0834 223.446 38.9149 222.524 36.923C221.655 35.1509 220.305 33.6594 218.628 32.6191ZM217.568 49.0324C216.472 50.5314 214.816 51.2795 212.599 51.2767C210.442 51.2767 208.804 50.5472 207.686 49.0882C206.567 47.6292 206.009 45.684 206.012 43.2523C205.985 41.8355 206.225 40.4263 206.72 39.0986C207.141 37.9697 207.888 36.9914 208.866 36.2879C209.968 35.5729 211.265 35.2176 212.578 35.2709C214.766 35.2709 216.415 35.9961 217.525 37.4465C218.635 38.8969 219.189 40.8322 219.186 43.2523C219.2 45.6182 218.661 47.5449 217.568 49.0324Z" fill="white"/>
<path d="M239.311 43.1536L247.786 31.6921H242.465L236.758 39.6521L230.987 31.6921H225.666L234.141 43.1536L225.473 54.864H230.815L236.758 46.6465L242.658 54.864H248.001L239.311 43.1536Z" fill="white"/>
<path d="M23.023 24.878C26.6749 21.2222 31.545 19.0392 36.7039 18.7456C41.8628 18.452 46.9492 20.0683 50.9923 23.286L54.3479 19.9347C50.0634 16.3772 44.741 14.3048 39.1791 14.0283C33.6171 13.7519 28.1154 15.2862 23.4992 18.4012C18.8831 21.5162 15.4013 26.0439 13.5762 31.3052C11.7512 36.5664 11.6811 42.2776 13.3767 47.5821L17.2387 43.7201C16.5876 40.3459 16.7745 36.8634 17.783 33.5783C18.7915 30.2931 20.5908 27.3057 23.023 24.878Z" fill="#288FFF"/>
<path d="M52.7546 54.6108C49.1 58.2634 44.2284 60.4425 39.0696 60.7322C33.9107 61.0219 28.8258 59.4019 24.7853 56.1814L21.4297 59.537C25.7128 63.0949 31.0339 65.1683 36.5951 65.4464C42.1562 65.7245 47.6576 64.1923 52.2744 61.0795C56.8911 57.9668 60.3743 53.4412 62.2016 48.1815C64.0289 42.9218 64.1018 37.2114 62.4095 31.9067L58.5475 35.7687C59.1952 39.1436 59.0058 42.6259 57.9959 45.9107C56.986 49.1955 55.1864 52.1827 52.7546 54.6108Z" fill="#288FFF"/>
<path d="M37.8867 29.7226L41.2252 33.061L47.6275 26.6587C46.3024 25.6687 44.8336 24.8872 43.272 24.3416L37.8867 29.7226Z" fill="#288FFF"/>
<path d="M34.5546 46.4192L28.1523 52.8215C29.4767 53.8137 30.9457 54.5967 32.5078 55.1429L37.8888 49.7576L34.5546 46.4192Z" fill="#288FFF"/>
<path d="M68.4613 15.8623L57.8194 16.7463L61.0206 19.9474L41.2258 39.7422L34.5489 33.0695L8 59.6185L11.3385 62.9569L34.5489 39.7422L41.2258 46.4191L64.359 23.2859L67.5516 26.4785L68.4613 15.8623Z" fill="#288FFF"/>
</g>
<defs>
<clipPath id="clip0_4619_5011">
<rect width="240" height="51.4886" fill="white" transform="translate(8 14)"/>
</clipPath>
</defs>
</svg>
