<svg width="32" height="28" viewBox="0 0 32 28" fill="none" xmlns="http://www.w3.org/2000/svg">
<path d="M7.95068 5.75914C9.88347 3.82429 12.4611 2.6689 15.1915 2.51348C17.9219 2.35807 20.6139 3.21352 22.7538 4.91656L24.5298 3.14282C22.2622 1.25999 19.4452 0.163148 16.5015 0.0168123C13.5577 -0.129523 10.6459 0.682542 8.20271 2.33119C5.75954 3.97984 3.91678 6.3762 2.95083 9.16081C1.98488 11.9454 1.94782 14.9682 2.84521 17.7756L4.88921 15.7316C4.54463 13.9457 4.64356 12.1026 5.17733 10.3639C5.7111 8.62519 6.6634 7.04403 7.95068 5.75914Z" fill="#288FFF"/>
<path d="M23.6875 21.4957C21.7533 23.4289 19.1749 24.5822 16.4446 24.7355C13.7142 24.8888 11.0229 24.0314 8.88441 22.3269L7.1084 24.1029C9.3753 25.986 12.1916 27.0834 15.1349 27.2306C18.0782 27.3778 20.9899 26.5668 23.4334 24.9193C25.8768 23.2719 27.7204 20.8766 28.6875 18.0928C29.6546 15.3091 29.6932 12.2868 28.7975 9.47922L26.7535 11.5232C27.0963 13.3095 26.9961 15.1525 26.4616 16.891C25.9271 18.6295 24.9746 20.2106 23.6875 21.4957Z" fill="#288FFF"/>
<path d="M15.8184 8.32311L17.5853 10.09L20.9738 6.70153C20.2725 6.17752 19.4951 5.76393 18.6686 5.47513L15.8184 8.32311Z" fill="#288FFF"/>
<path d="M14.0545 17.1601L10.666 20.5486C11.367 21.0738 12.1444 21.4882 12.9712 21.7773L15.8192 18.9271L14.0545 17.1601Z" fill="#288FFF"/>
<path d="M32 0.987396L26.3676 1.45525L28.0619 3.1495L17.5852 13.6261L14.0514 10.0946L0 24.1459L1.76693 25.9129L14.0514 13.6261L17.5852 17.16L29.8288 4.91642L31.5185 6.60613L32 0.987396Z" fill="#288FFF"/>
</svg>
