<svg width="48" height="48" viewBox="0 0 48 48" fill="none" xmlns="http://www.w3.org/2000/svg">
<circle cx="15.2694" cy="15.2694" r="8.60275" fill="#005EC2"/>
<path d="M29.2681 29.2677C35.196 29.2677 40.0015 26.8649 40.0015 23.9009C40.0015 20.937 35.196 18.5342 29.2681 18.5342C23.3402 18.5342 18.5347 20.937 18.5347 23.9009C18.5347 26.8649 23.3402 29.2677 29.2681 29.2677Z" stroke="white" stroke-width="2" stroke-linecap="round" stroke-linejoin="round"/>
<path d="M18.5347 24.6675V34.8898C18.5347 37.7129 23.3397 40.001 29.2681 40.001C35.1965 40.001 40.0015 37.7129 40.0015 34.8898V24.6675" stroke="white" stroke-width="2" stroke-linecap="round" stroke-linejoin="round"/>
<path d="M40.0015 28.5005C40.0015 31.8882 35.1965 34.6339 29.2681 34.6339C23.3397 34.6339 18.5347 31.8882 18.5347 28.5005" stroke="white" stroke-width="2" stroke-linecap="round" stroke-linejoin="round"/>
<path d="M15.2688 10.9669V19.5697" stroke="white" stroke-width="2" stroke-linecap="round"/>
<path d="M10.9686 15.2689L19.5714 15.2689" stroke="white" stroke-width="2" stroke-linecap="round"/>
</svg>
